# xmcd
#
# Track frame offsets:
#  150
#  12105
#  24908
#  37489
#  49414
#  62462
#  75782
#  91267
#  104127
#  115455
#  126941
#  139299
#
# Disc length: 2034 seconds
#
# Revision: 0
# Processed by: cddbd v1.5.1PL0 Copyright (c) Steve Scherf et al.
# Submitted via: Collectorz.com Music Collector 6.9
#
DISCID=a107f00c
DTITLE=Arnold, Eddy - Walkin' In Love Land
DYEAR=1900
DGENRE=Country
TTITLE0=Walkin' In Love Land
TTITLE1=Then You Can Tell Me Goodbye
TTITLE2=The Summer Wind
TTITLE3=My Dream
TTITLE4=I'll Never Smile Again
TTITLE5=Apples, Raisins And Roses
TTITLE6=Until It's Time For You To Go
TTITLE7=Turn Around, Look At Me
TTITLE8=All I Have To Do Is Dream
TTITLE9=Little Girls And Little Boys
TTITLE10=Just Across The Mountain
TTITLE11=The Olive Tree
EXTD=
EXTT0=
EXTT1=
EXTT2=
EXTT3=
EXTT4=
EXTT5=
EXTT6=
EXTT7=
EXTT8=
EXTT9=
EXTT10=
EXTT11=
PLAYORDER=
